<?xml version="1.0" encoding="iso-8859-1"?>
<!-- Uploaded to: SVG Repo, www.svgrepo.com, Generator: SVG Repo Mixer Tools -->
<svg fill="#000000" height="800px" width="800px" version="1.1" id="Layer_1" xmlns="http://www.w3.org/2000/svg" xmlns:xlink="http://www.w3.org/1999/xlink" 
	 viewBox="0 0 512 512" xml:space="preserve">
<g>
	<g>
		<path d="M429.552,157.659C421.12,69.323,346.508,0,256,0S90.88,69.323,82.448,157.659H30.968v16.696
			c0,118.467,92.02,215.84,208.336,224.412v79.842h-67.765V512h168.922v-33.391h-67.765v-79.842
			c116.315-8.572,208.336-105.945,208.336-224.412v-16.696H429.552z M258.264,101.865l-61.937,123.876l-29.865-14.933
			l61.938-123.876L258.264,101.865z M174.907,86.932l29.865,14.933l-45.046,90.091l-29.865-14.933L174.907,86.932z M256,365.995
			c-100.047,0-182.433-77.06-190.919-174.945h17.368C90.88,279.387,165.492,348.71,256,348.71s165.12-69.323,173.552-157.659h17.368
			C438.433,288.934,356.047,365.995,256,365.995z"/>
	</g>
</g>
</svg>